<svg viewBox='0 0 2000 2100' xmlns='http://www.w3.org/2000/svg'><path fill='black' transform="rotate(180 1000 900) translate(2000) scale(-1, 1)" horiz-adv-x="1755" d="M1111.478 927.963c-38.4 19.894-90.478 29.622-156.746 29.622h-163.182v-483.766h153.308c43.228 0 72.192 1.024 87.552 3.51 15.14 2.414 32.036 7.388 50.322 14.556 31.158 11.63 58.514 28.964 82.212 52.298 22.966 22.382 40.886 48.494 53.322 78.19 12.434 29.476 18.944 60.416 18.944 92.818 0 45.348-11.556 87.186-34.304 125.366-22.602 38.62-53.028 67.584-91.428 87.406zM1113.892 587.483c-10.606-10.752-22.382-19.602-35.254-26.844-12.8-7.388-28.818-13.312-47.982-18.066s-46.080-7.094-80.75-7.094h-88.796v360.374h86.674c33.5 0 57.344-1.316 72.338-3.804 15.068-2.486 31.012-7.826 47.982-15.652 16.604-7.9 31.452-17.846 44.398-30.062 35.182-32.988 52.59-75.41 52.59-127.414 0-53.028-17.042-96.548-51.2-131.438zM614.108 473.089h69.266v484.498h-69.266v-484.498zM1658.88 1512.595c-64.366 64.438-141.898 96.548-232.594 96.548h-1097.142c-90.698 0-168.156-32.11-232.594-96.548-64.438-64.292-96.548-141.898-96.548-232.594v-1097.142c0-90.698 32.11-168.302 96.548-232.74 64.438-64.146 142.044-96.402 232.594-96.402h1097.142c90.698 0 168.228 32.256 232.594 96.548 64.438 64.438 96.622 141.824 96.622 232.594v1097.142c0 90.698-32.182 168.302-96.622 232.594zM877.714 146.287c-323.146 0-585.142 262.070-585.142 585.142s261.998 585.142 585.142 585.142 585.142-262.070 585.142-585.142-261.998-585.142-585.142-585.142zM648.484 1103.361c-26.112 0-47.396-21.358-47.396-47.47 0-26.478 21.284-47.542 47.396-47.542 26.478 0 47.982 21.066 47.982 47.542 0 26.112-21.43 47.47-47.982 47.47z" /></svg> 
